<?xml version="1.0" standalone="no"?>
<!DOCTYPE svg PUBLIC "-//W3C//DTD SVG 20010904//EN"
 "http://www.w3.org/TR/2001/REC-SVG-20010904/DTD/svg10.dtd">
<svg version="1.0" xmlns="http://www.w3.org/2000/svg"
 width="300.000000pt" height="317.000000pt" viewBox="0 0 300.000000 317.000000"
 preserveAspectRatio="xMidYMid meet">
<metadata>
Created by potrace 1.10, written by Peter Selinger 2001-2011
</metadata>
<g transform="translate(0.000000,317.000000) scale(0.100000,-0.100000)"
fill="#000000" stroke="none">
<path d="M1196 2979 c-14 -11 -106 -123 -203 -247 -97 -125 -200 -256 -228
-292 -28 -36 -98 -125 -156 -199 -57 -74 -178 -227 -268 -340 l-164 -205 1
-291 1 -290 130 -127 129 -128 231 0 231 0 0 -148 c0 -223 28 -284 208 -460
l105 -102 727 0 727 0 47 32 c27 17 65 53 86 79 l37 48 1 212 1 212 -69 72
-70 72 0 975 0 976 -87 86 -88 87 -304 -3 -304 -3 -52 -57 c-35 -39 -60 -58
-75 -58 -15 0 -46 22 -86 60 l-62 60 -210 0 c-197 0 -211 -1 -236 -21z m411
-1445 c-2 -2 -97 -4 -212 -4 l-210 -2 -2 412 -2 412 41 49 c23 27 39 51 37 53
-2 3 -26 -15 -52 -40 -37 -34 -46 -49 -42 -66 4 -18 -30 -71 -162 -248 -309
-414 -428 -570 -436 -570 -4 0 -4 26 -1 58 6 49 14 67 63 131 31 40 65 86 76
101 50 68 64 87 120 160 33 43 86 115 119 159 32 44 61 81 65 83 3 2 19 23 35
48 48 73 107 139 121 134 8 -3 35 27 69 77 31 45 55 83 54 84 -2 2 -46 -39
-99 -90 -73 -70 -162 -180 -368 -454 l-271 -360 0 -81 0 -80 186 0 c161 0 185
-2 180 -15 -11 -31 -18 -222 -8 -277 l9 -58 -344 0 -343 0 0 268 0 269 83 104
c64 79 575 733 869 1111 l29 38 197 2 197 3 3 -704 c1 -387 1 -706 -1 -707z
m923 1408 c0 -11 -62 -47 -76 -44 -6 1 -18 -6 -25 -15 -13 -16 -12 -17 4 -4 9
8 20 12 23 9 2 -3 -74 -80 -171 -172 l-175 -167 -117 3 -118 3 -3 161 c-2 162
-2 162 24 193 l26 31 291 3 c161 1 298 3 305 5 6 1 12 -2 12 -6z m-820 -62
c28 -22 53 -35 76 -36 19 0 36 -3 38 -5 3 -2 6 -61 9 -131 6 -170 12 -180 110
-178 165 3 166 3 122 -63 l-26 -37 1 -312 c0 -172 0 -317 -1 -323 -1 -5 -1
-14 0 -18 2 -13 2 -271 -1 -478 -2 -139 -7 -200 -15 -211 -7 -8 -13 -26 -13
-39 0 -13 0 -31 0 -39 0 -8 -3 -34 -6 -58 -4 -26 -2 -48 6 -56 8 -11 8 -25 -1
-58 -7 -24 -16 -47 -20 -51 -9 -11 -331 -9 -343 3 -4 4 -10 31 -12 59 -3 41 1
56 16 71 26 26 26 85 0 128 -22 36 -26 62 -9 62 5 0 8 3 6 8 -3 4 23 6 58 4
44 -3 72 1 94 12 32 17 37 26 22 42 -17 17 -18 284 -1 284 6 0 10 -54 10 -142
1 -106 3 -138 11 -125 6 10 11 69 10 133 0 93 -4 124 -21 161 -11 25 -18 48
-16 50 2 3 23 -8 45 -22 39 -26 42 -27 66 -11 24 16 25 21 26 119 1 56 3 113
4 127 2 15 -7 34 -25 52 -27 27 -32 28 -129 28 -88 0 -104 -3 -121 -20 -33
-33 -40 -24 -41 48 -4 237 1 1044 6 1053 9 13 15 10 65 -31z m884 -2 c70 -59
65 13 65 -1042 l-1 -956 25 -33 c13 -17 41 -50 62 -71 20 -22 40 -49 44 -60
10 -27 12 -237 4 -335 -6 -67 -10 -78 -42 -114 -70 -78 -32 -75 -801 -75 -400
0 -698 3 -716 9 -16 5 -48 27 -69 49 -38 39 -38 40 -20 60 17 18 30 20 161 20
81 0 145 4 149 10 3 6 15 6 29 0 13 -5 226 -9 473 -10 528 -2 489 -3 514 10
11 6 24 8 30 5 19 -13 80 27 114 73 96 132 85 343 -23 462 -18 19 -31 39 -29
45 2 5 -2 27 -9 48 -10 27 -10 45 -3 64 8 23 6 30 -14 47 l-25 21 -1 729 -1
728 25 20 c24 19 25 23 25 141 0 67 -4 137 -9 155 -12 40 -4 40 43 0z m-59
-138 l0 -150 -157 0 -157 0 152 150 c84 82 154 150 157 150 3 0 5 -67 5 -150z
m-63 -186 c17 -5 18 -45 18 -729 l0 -723 -35 8 c-57 13 -40 -8 21 -26 49 -14
76 -36 62 -50 -3 -2 -25 0 -49 5 -25 6 -119 11 -209 13 -136 2 -172 -1 -202
-14 -38 -17 -38 -17 -38 6 0 20 7 25 57 35 31 6 113 11 182 11 l127 0 12 43
c10 32 12 199 10 710 l-3 668 -25 19 c-35 27 -48 25 -22 -3 27 -28 28 -38 5
-31 -17 5 -17 5 0 -6 16 -10 17 -54 17 -689 l0 -678 -142 -5 c-79 -3 -151 -9
-160 -13 -17 -7 -18 29 -18 665 l0 671 55 58 55 58 132 1 c73 1 140 -1 150 -4z
m-1324 -515 c1 -96 0 -207 -4 -247 l-6 -72 -54 3 c-83 5 -125 -28 -154 -123
-7 -25 -16 -48 -20 -53 -11 -13 -259 -12 -272 1 -8 8 0 25 33 67 24 31 51 66
59 78 18 27 73 100 80 107 3 3 23 30 45 60 22 30 57 78 80 106 22 28 73 97
114 153 41 56 79 100 85 98 7 -2 12 -65 14 -178z m764 -386 c2 -76 2 -140 1
-141 -1 -2 -19 15 -39 38 l-38 42 -73 -4 -73 -5 0 104 0 103 109 0 109 0 4
-137z m-790 19 c-12 -9 -31 -41 -43 -71 -26 -70 -38 -321 -20 -425 7 -37 10
-70 8 -72 -2 -2 -25 -8 -51 -13 -45 -8 -48 -8 -58 18 -31 82 -24 382 12 485
29 86 41 96 114 96 60 0 61 -1 38 -18z m16 -114 c-4 -27 -38 -34 -38 -7 0 11
8 32 18 47 17 26 17 26 20 4 2 -12 2 -32 0 -44z m545 -14 c-8 -21 -43 6 -43
33 l0 23 24 -21 c14 -12 22 -27 19 -35z m116 -66 c-24 -45 -23 -234 2 -316 3
-10 -68 -12 -350 -12 -195 0 -357 3 -360 6 -9 8 -14 272 -6 311 l6 33 360 0
360 0 -12 -22z m-885 -361 c20 -8 20 -31 1 -60 -21 -33 -22 -91 0 -131 20 -36
16 -57 -8 -38 -8 7 -96 13 -236 15 l-223 5 -40 38 c-76 73 -146 149 -148 159
0 6 14 12 32 15 46 7 603 4 622 -3z m696 -18 c0 -18 -4 -20 -27 -14 -16 4
-115 10 -220 12 -108 3 -193 9 -193 14 0 5 92 9 220 9 217 0 220 0 220 -21z
m-51 -38 c40 -11 75 -22 79 -26 11 -11 8 -93 -4 -105 -7 -7 -23 -6 -55 6 -92
33 -536 28 -602 -8 -16 -8 -23 -7 -34 8 -17 23 -17 88 0 103 34 27 135 39 338
40 172 1 217 -2 278 -18z m851 -88 l0 -48 -112 3 c-98 3 -198 -7 -244 -25 -11
-4 -14 6 -14 41 0 44 1 46 38 55 63 16 83 18 210 20 l122 1 0 -47z m114 17 c5
-5 10 -27 10 -48 1 -31 10 -49 40 -82 21 -23 47 -62 57 -86 56 -125 22 -306
-71 -381 -57 -46 -60 -44 -60 48 0 46 -3 129 -7 184 l-8 100 -6 -65 c-4 -36
-7 -120 -8 -187 l-1 -123 -156 0 -155 0 3 53 c3 45 6 52 23 50 62 -7 249 -3
259 7 7 7 -34 10 -136 10 l-146 0 0 116 -1 116 40 -37 c62 -55 60 -32 -2 31
-62 64 -102 88 -135 81 -22 -4 -24 -1 -24 33 0 40 15 59 52 65 13 3 48 9 78
16 73 15 247 6 287 -15 43 -22 89 -80 103 -132 19 -68 9 -154 -24 -204 -23
-36 -25 -41 -9 -38 10 2 30 27 46 58 25 48 28 63 23 117 -5 67 -33 138 -65
167 -11 10 -17 24 -14 32 3 10 -11 21 -43 37 -46 21 -49 24 -51 63 l-2 41 47
-9 c25 -4 50 -12 56 -18z m-1424 -189 l0 -118 -57 -6 c-32 -3 -66 -8 -75 -12
-16 -7 -18 2 -18 98 0 118 1 121 77 142 77 21 73 28 73 -104z m475 105 c34
-15 35 -16 35 -75 l0 -61 -62 0 c-56 -1 -67 -4 -95 -30 -18 -16 -33 -37 -33
-46 0 -16 2 -15 20 1 20 18 20 18 19 -163 l-1 -182 -142 0 c-97 0 -146 4 -154
12 -7 7 -12 40 -11 82 0 39 3 66 5 59 3 -7 21 -22 39 -33 28 -17 50 -21 131
-21 54 0 102 5 108 11 7 7 -19 10 -86 10 -53 0 -108 4 -122 10 -39 15 -56 59
-56 147 0 89 -14 127 -23 66 -4 -21 -7 -114 -7 -206 0 -122 -3 -166 -11 -161
-8 5 -10 90 -8 300 l4 294 208 0 c159 0 216 -3 242 -14z m911 -16 c15 -6 25
-13 22 -15 -7 -7 -75 22 -84 36 -5 8 -1 8 14 0 11 -6 33 -16 48 -21z m-886
-346 l0 -195 -52 3 -53 3 -1 90 c-1 50 0 79 3 65 3 -14 12 -33 20 -42 19 -21
59 -24 66 -5 3 9 -4 12 -29 9 -29 -4 -34 -1 -40 24 -4 16 -9 33 -12 38 -6 10
-8 35 -14 131 l-3 60 35 6 c19 4 45 7 58 8 l22 1 0 -196z m524 180 c13 -13 16
-45 16 -195 l0 -179 -260 0 -260 0 0 56 0 56 28 -7 c43 -11 464 -7 476 5 7 7
-73 10 -247 10 l-257 0 0 135 0 135 244 0 c209 0 247 -2 260 -16z m-1024 -157
l0 -83 -47 -14 c-42 -13 -44 -15 -21 -18 15 -2 36 2 48 8 19 10 20 8 20 -45 0
-66 -10 -69 -60 -17 -44 47 -67 93 -80 163 -14 73 -3 83 103 88 l37 1 0 -83z"/>
<path d="M1563 2908 c-30 -14 -29 -22 4 -47 30 -25 44 -20 20 7 -15 17 -15 19
0 35 19 19 9 21 -24 5z"/>
<path d="M1328 2893 c-20 -5 -24 -38 -7 -49 6 -3 16 -1 22 5 9 9 8 14 -3 21
-12 7 -10 11 10 19 25 10 10 13 -22 4z"/>
<path d="M1402 2890 c-59 -14 -48 -21 23 -14 77 7 114 25 50 23 -22 -1 -55 -5
-73 -9z"/>
<path d="M1516 2859 c-11 -16 -12 -27 -5 -41 10 -19 49 -25 49 -7 0 5 -5 7
-11 3 -8 -4 -9 3 -4 24 8 38 -9 50 -29 21z"/>
<path d="M1199 2735 c-40 -53 -69 -99 -65 -103 6 -6 24 12 74 73 5 6 17 24 27
40 10 17 32 42 49 57 29 26 30 27 9 28 -17 0 -41 -24 -94 -95z"/>
<path d="M1525 2771 l-30 -6 -5 -600 c-4 -524 -7 -600 -20 -600 -9 0 -16 11
-18 30 -5 46 -22 55 -22 13 0 -20 -3 -44 -6 -53 -5 -13 -2 -15 22 -9 40 9 61
30 68 66 3 17 6 277 6 577 l1 546 27 22 c28 23 26 25 -23 14z"/>
<path d="M1092 2603 c2 -10 10 -18 18 -18 8 0 16 8 18 18 2 12 -3 17 -18 17
-15 0 -20 -5 -18 -17z"/>
<path d="M921 2373 c-89 -114 -249 -322 -356 -461 l-195 -254 0 -191 c1 -127
4 -186 10 -176 5 9 10 94 11 187 0 160 2 173 22 199 29 37 34 44 55 70 9 11
24 31 32 43 17 25 89 119 108 140 15 18 60 77 87 115 11 15 31 42 45 59 14 17
28 36 32 41 4 6 18 24 32 40 36 43 166 212 205 268 19 26 37 47 40 47 4 0 15
16 25 35 45 83 -3 33 -153 -162z"/>
<path d="M1250 2389 c-27 -33 -50 -63 -50 -67 1 -8 59 56 91 101 37 49 11 28
-41 -34z"/>
<path d="M1317 2410 c-11 -40 -9 -838 3 -845 6 -4 11 11 11 37 4 142 3 760 -1
793 -5 36 -6 37 -13 15z"/>
<path d="M533 1436 c3 -27 10 -52 17 -56 16 -10 291 -13 315 -3 12 5 -48 10
-145 13 l-165 5 -3 35 c-2 19 -8 40 -14 45 -7 7 -9 -5 -5 -39z"/>
<path d="M313 1274 c-3 -8 -1 -20 5 -26 12 -12 42 -4 42 12 0 6 -4 8 -10 5 -5
-3 -10 1 -10 9 0 21 -19 21 -27 0z"/>
<path d="M370 1242 c0 -10 7 -27 15 -38 14 -19 15 -19 21 3 6 22 8 22 229 23
123 0 230 3 239 6 46 18 -20 24 -250 24 -238 0 -254 -1 -254 -18z"/>
<path d="M260 1181 c-7 -14 0 -16 57 -13 75 4 74 21 -1 26 -35 2 -49 -2 -56
-13z"/>
<path d="M2352 2918 c-7 -7 -12 -18 -12 -25 0 -7 -12 -16 -26 -19 -18 -5 -22
-9 -13 -15 8 -4 23 0 39 11 14 10 36 20 50 23 20 3 19 5 -9 6 -29 1 -32 3 -21
16 15 18 9 20 -8 3z"/>
<path d="M1925 2888 c-7 -22 -10 -268 -3 -248 4 10 9 68 11 130 3 61 8 114 12
118 5 4 5 1 0 -7 -5 -8 -4 -12 2 -8 13 8 306 13 318 5 6 -3 19 0 30 8 16 12
-5 14 -173 14 -145 0 -194 -3 -197 -12z"/>
<path d="M1896 2581 c-4 -5 18 -11 46 -13 65 -4 98 0 98 13 0 12 -137 12 -144
0z"/>
<path d="M1852 2350 c-14 -18 -18 -49 -22 -210 -3 -104 -2 -203 1 -219 9 -42
34 -64 64 -57 50 13 55 36 57 260 l2 208 -24 19 c-32 24 -56 24 -78 -1z m58
-233 c0 -216 -1 -223 -20 -223 -19 0 -20 7 -20 223 0 216 1 223 20 223 19 0
20 -7 20 -223z"/>
<path d="M2402 2675 c2 -30 8 -55 13 -56 13 0 18 36 10 77 -10 55 -26 40 -23
-21z"/>
<path d="M2161 2509 c-45 -54 -36 -56 13 -2 21 24 35 43 30 43 -5 0 -24 -19
-43 -41z"/>
<path d="M2221 1833 c-1 -381 3 -693 7 -693 11 0 10 -40 12 685 1 425 -2 659
-8 675 -8 17 -11 -185 -11 -667z"/>
<path d="M2180 2471 c0 -11 -4 -23 -10 -26 -5 -3 -10 -11 -10 -16 0 -6 4 -8 9
-5 5 3 6 -42 3 -102 -3 -59 -5 -131 -4 -159 1 -30 -3 -53 -8 -53 -7 0 -10 54
-8 148 2 99 -2 153 -10 167 -9 16 -11 -126 -11 -635 1 -381 5 -640 10 -620 4
19 8 139 8 265 0 127 2 238 4 247 6 35 17 30 18 -8 0 -21 2 -56 4 -76 2 -27
-1 -38 -11 -38 -17 0 -18 -12 -1 -29 12 -12 19 -223 7 -216 -9 5 -1 -115 9
-155 6 -21 9 228 10 648 1 375 -1 682 -4 682 -3 0 -5 -9 -5 -19z m-7 -577 c0
-80 -4 -148 -8 -152 -8 -8 -25 19 -19 29 2 5 5 69 6 143 1 93 4 133 12 130 7
-3 11 -51 9 -150z"/>
<path d="M987 1567 c-10 -28 -29 -203 -25 -247 2 -33 6 -14 16 70 17 154 18
157 50 174 l27 15 -31 1 c-18 0 -34 -6 -37 -13z"/>
<path d="M960 1202 c0 -32 12 -82 20 -82 3 0 5 13 2 29 -3 24 1 32 24 45 26
14 27 15 7 16 -12 0 -28 3 -37 6 -11 4 -16 0 -16 -14z"/>
<path d="M1106 1464 c-9 -24 -7 -187 3 -203 7 -10 10 -10 16 -1 4 7 2 16 -5
20 -10 6 -12 32 -7 104 5 96 4 110 -7 80z"/>
<path d="M1152 1379 c22 -12 481 -12 523 0 20 6 -68 9 -255 10 -195 0 -280 -3
-268 -10z"/>
<path d="M1700 1365 c-26 -31 18 -71 47 -42 19 19 8 57 -16 57 -10 0 -24 -7
-31 -15z"/>
<path d="M1398 1264 c-4 -3 -66 -5 -137 -5 -80 1 -131 -2 -131 -8 0 -17 38
-23 143 -20 57 1 109 -1 115 -5 7 -4 15 -1 18 8 3 9 11 16 16 16 6 0 8 -6 5
-12 -3 -10 29 -12 147 -10 159 2 196 7 196 21 0 5 -73 10 -162 10 -89 1 -171
4 -183 7 -11 3 -24 2 -27 -2z"/>
<path d="M1494 1033 l6 -28 -227 -1 c-245 0 -304 -9 -311 -48 -4 -19 -3 -19
20 -4 38 25 83 31 253 33 290 4 283 3 281 22 -1 13 9 19 34 23 l35 6 -30 7
c-16 4 -38 10 -49 13 -15 5 -17 2 -12 -23z"/>
<path d="M2217 984 c-10 -16 9 -38 28 -31 9 4 13 11 10 17 -4 6 -10 8 -15 5
-4 -3 -10 0 -12 7 -3 7 -7 8 -11 2z"/>
<path d="M2305 738 c-32 -17 -45 -39 -45 -76 0 -46 14 -68 51 -81 93 -32 158
96 77 153 -26 18 -55 20 -83 4z m79 -37 c24 -26 17 -60 -16 -84 l-28 -21 -27
21 c-16 11 -29 30 -31 42 -5 30 25 61 58 61 15 0 35 -9 44 -19z"/>
<path d="M2317 693 c-11 -10 -8 -51 3 -58 15 -9 47 3 54 20 10 26 -38 58 -57
38z"/>
<path d="M990 775 c0 -38 3 -66 6 -63 3 4 5 32 5 63 0 31 -2 59 -5 63 -3 3 -6
-25 -6 -63z"/>
<path d="M1038 743 c-9 -17 -2 -38 12 -38 18 0 20 37 3 42 -6 2 -13 0 -15 -4z"/>
<path d="M1501 848 c0 -44 3 -57 9 -43 12 28 12 93 0 100 -6 4 -10 -17 -9 -57z"/>
<path d="M1241 744 c-29 -37 -28 -88 4 -119 20 -21 32 -24 67 -21 28 2 43 9
43 17 0 8 7 14 15 14 11 0 14 10 12 40 -5 59 -30 89 -79 93 -34 3 -44 -1 -62
-24z m93 -10 c20 -20 21 -68 1 -84 -22 -18 -66 -15 -82 6 -19 25 -16 51 7 74
24 24 53 26 74 4z"/>
<path d="M1277 713 c-13 -12 -7 -41 10 -47 9 -4 23 0 31 8 13 12 13 18 2 30
-13 17 -32 21 -43 9z"/>
<path d="M1659 619 c32 -13 417 -12 439 1 12 6 -61 9 -223 9 -165 0 -232 -3
-216 -10z"/>
<path d="M994 612 c-8 -5 -9 -20 -4 -47 4 -22 8 -36 9 -30 0 5 8 -1 17 -13 23
-34 37 -26 18 11 -10 17 -20 44 -23 59 -4 17 -10 25 -17 20z"/>
</g>
</svg>
